M48
;Layer_Color=9474304
;FILE_FORMAT=2:5
INCH,LZ
;TYPE=PLATED
T1F00S00C0.03937
;TYPE=NON_PLATED
T2F00S00C0.13780
%
T01
X0405512Y0110236
Y0120236
Y0130236
Y0140236
Y0150236
Y0160236
Y0170236
Y0180236
Y0190236
Y0200236
Y0210236
Y0220236
Y0230236
Y0240236
Y0250236
Y0260236
Y0270236
Y0280236
Y0290236
Y0300236
Y0310236
X0297Y0308772
Y0298772
Y0288772
Y0278772
Y0268772
Y0258772
Y0248772
Y0238772
Y0228772
Y0218772
X0217
Y0228772
Y0238772
Y0248772
Y0258772
Y0268772
Y0278772
Y0288772
Y0298772
Y0308772
X0153228Y0397638
X0143228
X0133228
X0163228
X0173228
X0183228
X0217Y0398772
Y0408772
Y0418772
Y0428772
Y0438772
Y0448772
Y0458772
Y0388772
Y0378772
Y0368772
Y0358772
Y0348772
Y0338772
Y0328772
Y0318772
X0297
Y0328772
Y0338772
Y0348772
Y0358772
Y0368772
Y0378772
Y0388772
Y0398772
Y0408772
Y0418772
Y0428772
Y0438772
Y0448772
Y0458772
X0405512Y0460236
Y0450236
Y0440236
Y0430236
Y0420236
Y0410236
Y0400236
Y0390236
Y0380236
Y0370236
Y0360236
Y0350236
Y0340236
Y0330236
Y0320236
X0297Y0468772
X0217
T02
X013189Y0108268
X0383858
X013189Y0462598
X0383858
M30
